<?xml version="1.0" encoding="UTF-8"?>
<svg xmlns="http://www.w3.org/2000/svg" xmlns:xlink="http://www.w3.org/1999/xlink" width="1125" height="824" viewBox="0 0 1125 824">
<defs>
<g>
<g id="glyph-0-0">
<path d="M 0.582031 -4.941406 C 0.582031 -6.128906 0.703125 -7.082031 0.945312 -7.804688 C 1.191406 -8.527344 1.554688 -9.082031 2.035156 -9.476562 C 2.515625 -9.867188 3.121094 -10.0625 3.847656 -10.0625 C 4.386719 -10.0625 4.859375 -9.953125 5.265625 -9.738281 C 5.667969 -9.519531 6.003906 -9.210938 6.269531 -8.800781 C 6.53125 -8.394531 6.738281 -7.898438 6.890625 -7.3125 C 7.039062 -6.726562 7.117188 -5.9375 7.117188 -4.941406 C 7.117188 -3.765625 6.996094 -2.816406 6.753906 -2.09375 C 6.511719 -1.371094 6.152344 -0.816406 5.671875 -0.421875 C 5.191406 -0.0273438 4.582031 0.171875 3.847656 0.171875 C 2.882812 0.171875 2.125 -0.175781 1.570312 -0.867188 C 0.910156 -1.703125 0.582031 -3.058594 0.582031 -4.941406 M 1.84375 -4.941406 C 1.84375 -3.296875 2.039062 -2.203125 2.421875 -1.65625 C 2.808594 -1.113281 3.285156 -0.839844 3.847656 -0.839844 C 4.414062 -0.839844 4.890625 -1.113281 5.273438 -1.660156 C 5.660156 -2.207031 5.851562 -3.300781 5.851562 -4.941406 C 5.851562 -6.59375 5.660156 -7.6875 5.273438 -8.230469 C 4.890625 -8.773438 4.410156 -9.042969 3.835938 -9.042969 C 3.269531 -9.042969 2.820312 -8.804688 2.480469 -8.328125 C 2.058594 -7.714844 1.84375 -6.585938 1.84375 -4.941406 Z M 1.84375 -4.941406 "/>
</g>
<g id="glyph-0-1">
<path d="M 1.273438 0 L 1.273438 -1.402344 L 2.671875 -1.402344 L 2.671875 0 Z M 1.273438 0 "/>
</g>
<g id="glyph-0-2">
<path d="M 7.046875 -1.183594 L 7.046875 0 L 0.421875 0 C 0.414062 -0.296875 0.460938 -0.582031 0.566406 -0.855469 C 0.734375 -1.304688 1.007812 -1.75 1.378906 -2.1875 C 1.75 -2.625 2.285156 -3.132812 2.988281 -3.703125 C 4.078125 -4.597656 4.8125 -5.304688 5.195312 -5.828125 C 5.578125 -6.347656 5.769531 -6.84375 5.769531 -7.308594 C 5.769531 -7.796875 5.59375 -8.207031 5.246094 -8.542969 C 4.898438 -8.875 4.445312 -9.042969 3.882812 -9.042969 C 3.289062 -9.042969 2.816406 -8.867188 2.460938 -8.511719 C 2.105469 -8.15625 1.925781 -7.664062 1.921875 -7.035156 L 0.65625 -7.164062 C 0.742188 -8.109375 1.070312 -8.828125 1.632812 -9.320312 C 2.199219 -9.816406 2.957031 -10.0625 3.910156 -10.0625 C 4.871094 -10.0625 5.632812 -9.796875 6.195312 -9.261719 C 6.753906 -8.730469 7.035156 -8.070312 7.035156 -7.28125 C 7.035156 -6.878906 6.953125 -6.484375 6.789062 -6.097656 C 6.625 -5.710938 6.351562 -5.300781 5.972656 -4.875 C 5.589844 -4.445312 4.957031 -3.859375 4.074219 -3.109375 C 3.335938 -2.492188 2.863281 -2.070312 2.652344 -1.847656 C 2.441406 -1.628906 2.269531 -1.40625 2.132812 -1.183594 Z M 7.046875 -1.183594 "/>
</g>
<g id="glyph-0-3">
<path d="M 0.582031 -2.625 L 1.875 -2.734375 C 1.96875 -2.105469 2.191406 -1.632812 2.539062 -1.316406 C 2.886719 -1 3.308594 -0.839844 3.800781 -0.839844 C 4.394531 -0.839844 4.894531 -1.0625 5.304688 -1.511719 C 5.714844 -1.957031 5.921875 -2.550781 5.921875 -3.289062 C 5.921875 -3.988281 5.722656 -4.542969 5.328125 -4.949219 C 4.933594 -5.355469 4.417969 -5.558594 3.78125 -5.558594 C 3.382812 -5.558594 3.027344 -5.46875 2.707031 -5.289062 C 2.386719 -5.109375 2.136719 -4.875 1.953125 -4.585938 L 0.800781 -4.738281 L 1.769531 -9.882812 L 6.753906 -9.882812 L 6.753906 -8.710938 L 2.753906 -8.710938 L 2.214844 -6.015625 C 2.816406 -6.433594 3.449219 -6.644531 4.109375 -6.644531 C 4.984375 -6.644531 5.722656 -6.339844 6.324219 -5.734375 C 6.925781 -5.128906 7.226562 -4.351562 7.226562 -3.398438 C 7.226562 -2.492188 6.960938 -1.707031 6.433594 -1.046875 C 5.789062 -0.234375 4.914062 0.171875 3.800781 0.171875 C 2.890625 0.171875 2.144531 -0.0859375 1.570312 -0.59375 C 0.992188 -1.105469 0.664062 -1.78125 0.582031 -2.625 Z M 0.582031 -2.625 "/>
</g>
<g id="glyph-0-4">
<path d="M 0.664062 -8.710938 L 0.664062 -9.890625 L 7.148438 -9.890625 L 7.148438 -8.933594 C 6.511719 -8.253906 5.878906 -7.351562 5.253906 -6.226562 C 4.625 -5.101562 4.140625 -3.945312 3.800781 -2.753906 C 3.554688 -1.917969 3.398438 -0.996094 3.328125 0 L 2.0625 0 C 2.078125 -0.789062 2.234375 -1.742188 2.53125 -2.859375 C 2.824219 -3.972656 3.25 -5.050781 3.804688 -6.085938 C 4.359375 -7.125 4.945312 -8 5.570312 -8.710938 Z M 0.664062 -8.710938 "/>
</g>
<g id="glyph-0-5">
<path d="M 5.214844 0 L 3.984375 0 L 3.984375 -7.839844 C 3.6875 -7.558594 3.300781 -7.277344 2.820312 -6.992188 C 2.339844 -6.710938 1.90625 -6.5 1.523438 -6.359375 L 1.523438 -7.546875 C 2.210938 -7.871094 2.8125 -8.261719 3.328125 -8.722656 C 3.84375 -9.183594 4.207031 -9.628906 4.421875 -10.0625 L 5.214844 -10.0625 Z M 5.214844 0 "/>
</g>
<g id="glyph-0-6">
<path d="M 0.445312 -3.007812 L 0.445312 -4.246094 L 4.226562 -4.246094 L 4.226562 -3.007812 Z M 0.445312 -3.007812 "/>
</g>
<g id="glyph-1-0">
<path d="M 1.582031 0 L 1.582031 -14.316406 L 11.933594 -14.316406 L 11.933594 -12.625 L 3.476562 -12.625 L 3.476562 -8.242188 L 11.398438 -8.242188 L 11.398438 -6.5625 L 3.476562 -6.5625 L 3.476562 -1.6875 L 12.265625 -1.6875 L 12.265625 0 Z M 1.582031 0 "/>
</g>
<g id="glyph-1-1">
<path d="M 1.296875 0 L 1.296875 -10.371094 L 2.882812 -10.371094 L 2.882812 -8.796875 C 3.285156 -9.535156 3.65625 -10.019531 4 -10.253906 C 4.339844 -10.488281 4.714844 -10.605469 5.125 -10.605469 C 5.71875 -10.605469 6.320312 -10.417969 6.933594 -10.039062 L 6.328125 -8.40625 C 5.898438 -8.660156 5.46875 -8.789062 5.039062 -8.789062 C 4.65625 -8.789062 4.308594 -8.671875 4.003906 -8.441406 C 3.699219 -8.210938 3.480469 -7.890625 3.351562 -7.480469 C 3.15625 -6.855469 3.054688 -6.171875 3.054688 -5.429688 L 3.054688 0 Z M 1.296875 0 "/>
</g>
<g id="glyph-1-2">
<path d="M 0.664062 -5.1875 C 0.664062 -7.105469 1.199219 -8.527344 2.265625 -9.453125 C 3.15625 -10.222656 4.246094 -10.605469 5.527344 -10.605469 C 6.953125 -10.605469 8.117188 -10.136719 9.023438 -9.203125 C 9.929688 -8.269531 10.382812 -6.980469 10.382812 -5.332031 C 10.382812 -3.996094 10.179688 -2.949219 9.78125 -2.183594 C 9.378906 -1.417969 8.796875 -0.824219 8.03125 -0.398438 C 7.265625 0.0234375 6.433594 0.234375 5.527344 0.234375 C 4.074219 0.234375 2.902344 -0.230469 2.007812 -1.164062 C 1.113281 -2.09375 0.664062 -3.433594 0.664062 -5.1875 M 2.46875 -5.1875 C 2.46875 -3.859375 2.761719 -2.863281 3.339844 -2.203125 C 3.917969 -1.542969 4.648438 -1.210938 5.527344 -1.210938 C 6.398438 -1.210938 7.125 -1.542969 7.703125 -2.207031 C 8.285156 -2.871094 8.574219 -3.882812 8.574219 -5.242188 C 8.574219 -6.527344 8.28125 -7.5 7.699219 -8.160156 C 7.117188 -8.820312 6.394531 -9.148438 5.527344 -9.148438 C 4.648438 -9.148438 3.917969 -8.820312 3.339844 -8.164062 C 2.761719 -7.507812 2.46875 -6.515625 2.46875 -5.1875 Z M 2.46875 -5.1875 "/>
</g>
<g id="glyph-1-3">
<path d="M 1.542969 0 L 1.542969 -14.316406 L 6.476562 -14.316406 C 7.585938 -14.316406 8.4375 -14.25 9.023438 -14.109375 C 9.84375 -13.921875 10.542969 -13.582031 11.125 -13.085938 C 11.878906 -12.449219 12.441406 -11.632812 12.816406 -10.640625 C 13.191406 -9.648438 13.378906 -8.511719 13.378906 -7.234375 C 13.378906 -6.148438 13.25 -5.1875 13 -4.34375 C 12.742188 -3.507812 12.417969 -2.8125 12.023438 -2.261719 C 11.625 -1.710938 11.191406 -1.277344 10.71875 -0.960938 C 10.246094 -0.644531 9.675781 -0.40625 9.007812 -0.242188 C 8.339844 -0.0820312 7.574219 0 6.710938 0 L 1.542969 0 M 3.4375 -1.6875 L 6.492188 -1.6875 C 7.4375 -1.6875 8.179688 -1.777344 8.714844 -1.953125 C 9.253906 -2.128906 9.679688 -2.375 10 -2.695312 C 10.449219 -3.144531 10.800781 -3.75 11.050781 -4.507812 C 11.300781 -5.265625 11.425781 -6.183594 11.425781 -7.265625 C 11.425781 -8.761719 11.179688 -9.914062 10.6875 -10.71875 C 10.195312 -11.523438 9.601562 -12.0625 8.898438 -12.335938 C 8.390625 -12.53125 7.570312 -12.625 6.445312 -12.625 L 3.4375 -12.625 Z M 3.4375 -1.6875 "/>
</g>
<g id="glyph-1-4">
<path d="M 1.328125 -12.296875 L 1.328125 -14.316406 L 3.085938 -14.316406 L 3.085938 -12.296875 L 1.328125 -12.296875 M 1.328125 0 L 1.328125 -10.371094 L 3.085938 -10.371094 L 3.085938 0 Z M 1.328125 0 "/>
</g>
<g id="glyph-1-5">
<path d="M 0.617188 -3.09375 L 2.351562 -3.367188 C 2.453125 -2.671875 2.722656 -2.140625 3.167969 -1.765625 C 3.613281 -1.398438 4.238281 -1.210938 5.039062 -1.210938 C 5.847656 -1.210938 6.445312 -1.375 6.835938 -1.703125 C 7.226562 -2.03125 7.421875 -2.417969 7.421875 -2.859375 C 7.421875 -3.257812 7.25 -3.570312 6.90625 -3.796875 C 6.664062 -3.953125 6.0625 -4.152344 5.109375 -4.394531 C 3.820312 -4.71875 2.925781 -5 2.425781 -5.238281 C 1.929688 -5.476562 1.550781 -5.804688 1.292969 -6.226562 C 1.035156 -6.644531 0.90625 -7.109375 0.90625 -7.617188 C 0.90625 -8.078125 1.015625 -8.507812 1.226562 -8.902344 C 1.4375 -9.296875 1.726562 -9.621094 2.089844 -9.882812 C 2.363281 -10.085938 2.734375 -10.253906 3.207031 -10.394531 C 3.679688 -10.535156 4.1875 -10.605469 4.726562 -10.605469 C 5.539062 -10.605469 6.253906 -10.488281 6.871094 -10.253906 C 7.484375 -10.019531 7.9375 -9.703125 8.234375 -9.300781 C 8.523438 -8.902344 8.726562 -8.367188 8.835938 -7.695312 L 7.117188 -7.460938 C 7.039062 -7.996094 6.816406 -8.410156 6.441406 -8.710938 C 6.066406 -9.011719 5.539062 -9.160156 4.851562 -9.160156 C 4.046875 -9.160156 3.46875 -9.027344 3.125 -8.757812 C 2.78125 -8.492188 2.609375 -8.179688 2.609375 -7.820312 C 2.609375 -7.59375 2.679688 -7.390625 2.820312 -7.207031 C 2.964844 -7.019531 3.191406 -6.863281 3.496094 -6.738281 C 3.671875 -6.671875 4.1875 -6.523438 5.046875 -6.289062 C 6.292969 -5.957031 7.160156 -5.683594 7.652344 -5.472656 C 8.144531 -5.261719 8.527344 -4.953125 8.808594 -4.550781 C 9.089844 -4.148438 9.226562 -3.644531 9.226562 -3.046875 C 9.226562 -2.460938 9.058594 -1.910156 8.714844 -1.390625 C 8.375 -0.875 7.878906 -0.472656 7.234375 -0.191406 C 6.59375 0.09375 5.863281 0.234375 5.046875 0.234375 C 3.703125 0.234375 2.675781 -0.046875 1.96875 -0.605469 C 1.261719 -1.164062 0.8125 -1.996094 0.617188 -3.09375 Z M 0.617188 -3.09375 "/>
</g>
<g id="glyph-1-6">
<path d="M 5.15625 -1.570312 L 5.410156 -0.0195312 C 4.914062 0.0859375 4.472656 0.136719 4.082031 0.136719 C 3.445312 0.136719 2.949219 0.0351562 2.597656 -0.164062 C 2.246094 -0.367188 2 -0.632812 1.855469 -0.960938 C 1.710938 -1.289062 1.640625 -1.984375 1.640625 -3.039062 L 1.640625 -9.003906 L 0.351562 -9.003906 L 0.351562 -10.371094 L 1.640625 -10.371094 L 1.640625 -12.9375 L 3.390625 -13.992188 L 3.390625 -10.371094 L 5.15625 -10.371094 L 5.15625 -9.003906 L 3.390625 -9.003906 L 3.390625 -2.9375 C 3.390625 -2.4375 3.417969 -2.117188 3.480469 -1.972656 C 3.542969 -1.828125 3.644531 -1.714844 3.785156 -1.632812 C 3.925781 -1.546875 4.125 -1.503906 4.382812 -1.503906 C 4.578125 -1.503906 4.835938 -1.527344 5.15625 -1.570312 Z M 5.15625 -1.570312 "/>
</g>
<g id="glyph-1-7">
<path d="M 2.9375 0 L 1.308594 0 L 1.308594 -14.316406 L 3.066406 -14.316406 L 3.066406 -9.210938 C 3.808594 -10.140625 4.757812 -10.605469 5.90625 -10.605469 C 6.546875 -10.605469 7.148438 -10.476562 7.71875 -10.21875 C 8.289062 -9.960938 8.757812 -9.601562 9.125 -9.136719 C 9.492188 -8.671875 9.78125 -8.109375 9.992188 -7.453125 C 10.199219 -6.792969 10.304688 -6.089844 10.304688 -5.34375 C 10.304688 -3.5625 9.863281 -2.191406 8.984375 -1.21875 C 8.105469 -0.25 7.050781 0.234375 5.820312 0.234375 C 4.597656 0.234375 3.636719 -0.277344 2.9375 -1.296875 L 2.9375 0 M 2.921875 -5.265625 C 2.921875 -4.019531 3.089844 -3.121094 3.429688 -2.570312 C 3.980469 -1.664062 4.730469 -1.210938 5.671875 -1.210938 C 6.441406 -1.210938 7.105469 -1.542969 7.664062 -2.210938 C 8.226562 -2.878906 8.507812 -3.875 8.507812 -5.195312 C 8.507812 -6.550781 8.238281 -7.546875 7.699219 -8.195312 C 7.164062 -8.835938 6.515625 -9.160156 5.75 -9.160156 C 4.984375 -9.160156 4.320312 -8.828125 3.757812 -8.160156 C 3.199219 -7.492188 2.921875 -6.527344 2.921875 -5.265625 Z M 2.921875 -5.265625 "/>
</g>
<g id="glyph-1-8">
<path d="M 8.117188 0 L 8.117188 -1.523438 C 7.308594 -0.351562 6.210938 0.234375 4.824219 0.234375 C 4.210938 0.234375 3.640625 0.117188 3.109375 -0.117188 C 2.578125 -0.351562 2.1875 -0.644531 1.929688 -1 C 1.671875 -1.355469 1.492188 -1.789062 1.386719 -2.304688 C 1.316406 -2.648438 1.28125 -3.195312 1.28125 -3.945312 L 1.28125 -10.371094 L 3.039062 -10.371094 L 3.039062 -4.617188 C 3.039062 -3.703125 3.074219 -3.082031 3.144531 -2.765625 C 3.253906 -2.300781 3.488281 -1.9375 3.847656 -1.675781 C 4.207031 -1.410156 4.648438 -1.28125 5.175781 -1.28125 C 5.703125 -1.28125 6.199219 -1.414062 6.660156 -1.683594 C 7.121094 -1.953125 7.449219 -2.324219 7.640625 -2.789062 C 7.832031 -3.253906 7.929688 -3.929688 7.929688 -4.8125 L 7.929688 -10.371094 L 9.6875 -10.371094 L 9.6875 0 Z M 8.117188 0 "/>
</g>
<g id="glyph-1-9">
<path d="M 1.320312 0 L 1.320312 -10.371094 L 2.898438 -10.371094 L 2.898438 -8.898438 C 3.660156 -10.035156 4.761719 -10.605469 6.203125 -10.605469 C 6.828125 -10.605469 7.402344 -10.492188 7.925781 -10.269531 C 8.449219 -10.042969 8.839844 -9.75 9.101562 -9.382812 C 9.363281 -9.019531 9.542969 -8.585938 9.648438 -8.085938 C 9.714844 -7.761719 9.746094 -7.191406 9.746094 -6.375 L 9.746094 0 L 7.988281 0 L 7.988281 -6.308594 C 7.988281 -7.023438 7.921875 -7.558594 7.78125 -7.914062 C 7.648438 -8.269531 7.402344 -8.554688 7.054688 -8.765625 C 6.707031 -8.976562 6.296875 -9.082031 5.828125 -9.082031 C 5.082031 -9.082031 4.433594 -8.84375 3.890625 -8.367188 C 3.347656 -7.894531 3.078125 -6.992188 3.078125 -5.664062 L 3.078125 0 Z M 1.320312 0 "/>
</g>
<g id="glyph-1-10">
</g>
<g id="glyph-1-11">
<path d="M 1.738281 0 L 1.738281 -9.003906 L 0.1875 -9.003906 L 0.1875 -10.371094 L 1.738281 -10.371094 L 1.738281 -11.476562 C 1.738281 -12.171875 1.800781 -12.6875 1.921875 -13.027344 C 2.09375 -13.484375 2.390625 -13.851562 2.816406 -14.136719 C 3.242188 -14.417969 3.839844 -14.5625 4.609375 -14.5625 C 5.105469 -14.5625 5.652344 -14.5 6.25 -14.382812 L 5.984375 -12.851562 C 5.621094 -12.917969 5.277344 -12.949219 4.953125 -12.949219 C 4.417969 -12.949219 4.039062 -12.835938 3.820312 -12.609375 C 3.597656 -12.378906 3.484375 -11.953125 3.484375 -11.328125 L 3.484375 -10.371094 L 5.507812 -10.371094 L 5.507812 -9.003906 L 3.484375 -9.003906 L 3.484375 0 Z M 1.738281 0 "/>
</g>
<g id="glyph-1-12">
<path d="M 1.320312 3.976562 L 1.320312 -10.371094 L 2.921875 -10.371094 L 2.921875 -9.023438 C 3.296875 -9.550781 3.722656 -9.945312 4.199219 -10.210938 C 4.675781 -10.472656 5.25 -10.605469 5.929688 -10.605469 C 6.8125 -10.605469 7.59375 -10.378906 8.273438 -9.921875 C 8.949219 -9.464844 9.460938 -8.824219 9.804688 -7.992188 C 10.148438 -7.164062 10.320312 -6.253906 10.320312 -5.265625 C 10.320312 -4.203125 10.132812 -3.246094 9.75 -2.398438 C 9.371094 -1.546875 8.816406 -0.898438 8.089844 -0.445312 C 7.363281 0.0078125 6.601562 0.234375 5.800781 0.234375 C 5.214844 0.234375 4.6875 0.109375 4.222656 -0.136719 C 3.757812 -0.382812 3.375 -0.695312 3.078125 -1.074219 L 3.078125 3.976562 L 1.320312 3.976562 M 2.910156 -5.125 C 2.910156 -3.792969 3.179688 -2.804688 3.71875 -2.167969 C 4.261719 -1.53125 4.914062 -1.210938 5.683594 -1.210938 C 6.464844 -1.210938 7.132812 -1.542969 7.691406 -2.203125 C 8.246094 -2.863281 8.523438 -3.886719 8.523438 -5.273438 C 8.523438 -6.59375 8.253906 -7.585938 7.710938 -8.242188 C 7.167969 -8.898438 6.515625 -9.226562 5.761719 -9.226562 C 5.011719 -9.226562 4.351562 -8.878906 3.773438 -8.179688 C 3.199219 -7.480469 2.910156 -6.460938 2.910156 -5.125 Z M 2.910156 -5.125 "/>
</g>
<g id="glyph-1-13">
<path d="M 8.417969 -3.339844 L 10.234375 -3.117188 C 9.949219 -2.054688 9.417969 -1.230469 8.640625 -0.644531 C 7.867188 -0.0585938 6.878906 0.234375 5.671875 0.234375 C 4.15625 0.234375 2.953125 -0.234375 2.066406 -1.167969 C 1.175781 -2.101562 0.734375 -3.410156 0.734375 -5.097656 C 0.734375 -6.84375 1.179688 -8.195312 2.078125 -9.160156 C 2.976562 -10.125 4.144531 -10.605469 5.578125 -10.605469 C 6.960938 -10.605469 8.09375 -10.132812 8.976562 -9.1875 C 9.851562 -8.246094 10.292969 -6.917969 10.292969 -5.203125 C 10.292969 -5.101562 10.289062 -4.945312 10.28125 -4.734375 L 2.546875 -4.734375 C 2.613281 -3.597656 2.9375 -2.726562 3.515625 -2.117188 C 4.09375 -1.515625 4.816406 -1.210938 5.683594 -1.210938 C 6.328125 -1.210938 6.878906 -1.378906 7.335938 -1.71875 C 7.789062 -2.058594 8.152344 -2.597656 8.417969 -3.339844 M 2.648438 -6.179688 L 8.4375 -6.179688 C 8.359375 -7.054688 8.136719 -7.707031 7.773438 -8.144531 C 7.214844 -8.820312 6.488281 -9.160156 5.59375 -9.160156 C 4.789062 -9.160156 4.109375 -8.890625 3.558594 -8.351562 C 3.007812 -7.808594 2.703125 -7.085938 2.648438 -6.179688 Z M 2.648438 -6.179688 "/>
</g>
<g id="glyph-1-14">
<path d="M 8.046875 0 L 8.046875 -1.308594 C 7.390625 -0.28125 6.421875 0.234375 5.148438 0.234375 C 4.320312 0.234375 3.558594 0.0078125 2.867188 -0.449219 C 2.171875 -0.90625 1.636719 -1.542969 1.253906 -2.359375 C 0.875 -3.175781 0.683594 -4.113281 0.683594 -5.175781 C 0.683594 -6.210938 0.855469 -7.148438 1.203125 -7.992188 C 1.546875 -8.835938 2.0625 -9.480469 2.753906 -9.929688 C 3.445312 -10.382812 4.214844 -10.605469 5.070312 -10.605469 C 5.695312 -10.605469 6.25 -10.472656 6.738281 -10.210938 C 7.226562 -9.945312 7.625 -9.601562 7.929688 -9.179688 L 7.929688 -14.316406 L 9.679688 -14.316406 L 9.679688 0 L 8.046875 0 M 2.492188 -5.175781 C 2.488281 -3.847656 2.769531 -2.855469 3.328125 -2.195312 C 3.890625 -1.539062 4.550781 -1.210938 5.3125 -1.210938 C 6.082031 -1.210938 6.734375 -1.523438 7.269531 -2.152344 C 7.808594 -2.78125 8.078125 -3.742188 8.078125 -5.03125 C 8.078125 -6.449219 7.804688 -7.492188 7.257812 -8.15625 C 6.710938 -8.820312 6.035156 -9.148438 5.234375 -9.148438 C 4.453125 -9.148438 3.800781 -8.832031 3.277344 -8.195312 C 2.753906 -7.554688 2.488281 -6.550781 2.492188 -5.175781 Z M 2.492188 -5.175781 "/>
</g>
<g id="glyph-1-15">
<path d="M 8.085938 -3.796875 L 9.8125 -3.574219 C 9.625 -2.382812 9.140625 -1.449219 8.363281 -0.777344 C 7.585938 -0.101562 6.632812 0.234375 5.5 0.234375 C 4.078125 0.234375 2.9375 -0.230469 2.074219 -1.15625 C 1.210938 -2.085938 0.78125 -3.414062 0.78125 -5.148438 C 0.78125 -6.265625 0.96875 -7.246094 1.335938 -8.085938 C 1.710938 -8.925781 2.273438 -9.554688 3.03125 -9.976562 C 3.789062 -10.394531 4.617188 -10.605469 5.507812 -10.605469 C 6.632812 -10.605469 7.554688 -10.320312 8.273438 -9.75 C 8.988281 -9.179688 9.445312 -8.371094 9.648438 -7.324219 L 7.9375 -7.0625 C 7.777344 -7.757812 7.488281 -8.28125 7.074219 -8.632812 C 6.660156 -8.984375 6.164062 -9.160156 5.578125 -9.160156 C 4.691406 -9.160156 3.972656 -8.84375 3.417969 -8.207031 C 2.863281 -7.574219 2.585938 -6.570312 2.585938 -5.195312 C 2.585938 -3.800781 2.855469 -2.789062 3.390625 -2.15625 C 3.921875 -1.527344 4.617188 -1.210938 5.476562 -1.210938 C 6.167969 -1.210938 6.746094 -1.421875 7.207031 -1.84375 C 7.667969 -2.269531 7.960938 -2.921875 8.085938 -3.796875 Z M 8.085938 -3.796875 "/>
</g>
<g id="glyph-2-0">
<path d="M -3.796875 -8.085938 L -3.574219 -9.8125 C -2.382812 -9.625 -1.449219 -9.140625 -0.777344 -8.363281 C -0.101562 -7.585938 0.234375 -6.632812 0.234375 -5.5 C 0.234375 -4.078125 -0.230469 -2.9375 -1.15625 -2.074219 C -2.085938 -1.210938 -3.414062 -0.78125 -5.148438 -0.78125 C -6.265625 -0.78125 -7.246094 -0.96875 -8.085938 -1.339844 C -8.925781 -1.710938 -9.554688 -2.273438 -9.976562 -3.03125 C -10.394531 -3.789062 -10.605469 -4.617188 -10.605469 -5.507812 C -10.605469 -6.632812 -10.320312 -7.554688 -9.75 -8.273438 C -9.179688 -8.988281 -8.371094 -9.445312 -7.324219 -9.648438 L -7.058594 -7.9375 C -7.757812 -7.777344 -8.28125 -7.488281 -8.632812 -7.074219 C -8.984375 -6.660156 -9.160156 -6.164062 -9.160156 -5.578125 C -9.160156 -4.691406 -8.84375 -3.972656 -8.207031 -3.417969 C -7.574219 -2.863281 -6.570312 -2.589844 -5.195312 -2.589844 C -3.800781 -2.589844 -2.789062 -2.855469 -2.15625 -3.390625 C -1.527344 -3.921875 -1.210938 -4.617188 -1.210938 -5.476562 C -1.210938 -6.167969 -1.421875 -6.746094 -1.84375 -7.207031 C -2.269531 -7.667969 -2.917969 -7.960938 -3.796875 -8.085938 Z M -3.796875 -8.085938 "/>
</g>
<g id="glyph-2-1">
<path d="M -5.1875 -0.664062 C -7.105469 -0.664062 -8.527344 -1.199219 -9.453125 -2.265625 C -10.222656 -3.15625 -10.605469 -4.246094 -10.605469 -5.527344 C -10.605469 -6.953125 -10.136719 -8.117188 -9.203125 -9.023438 C -8.269531 -9.929688 -6.980469 -10.382812 -5.332031 -10.382812 C -3.996094 -10.382812 -2.949219 -10.179688 -2.183594 -9.78125 C -1.417969 -9.378906 -0.824219 -8.796875 -0.398438 -8.03125 C 0.0234375 -7.265625 0.234375 -6.433594 0.234375 -5.527344 C 0.234375 -4.074219 -0.230469 -2.902344 -1.160156 -2.007812 C -2.09375 -1.113281 -3.433594 -0.664062 -5.1875 -0.664062 M -5.1875 -2.472656 C -3.859375 -2.472656 -2.863281 -2.761719 -2.203125 -3.339844 C -1.542969 -3.917969 -1.210938 -4.648438 -1.210938 -5.527344 C -1.210938 -6.398438 -1.542969 -7.125 -2.207031 -7.703125 C -2.871094 -8.285156 -3.882812 -8.574219 -5.242188 -8.574219 C -6.527344 -8.574219 -7.5 -8.28125 -8.160156 -7.699219 C -8.820312 -7.117188 -9.148438 -6.394531 -9.148438 -5.527344 C -9.148438 -4.648438 -8.820312 -3.917969 -8.164062 -3.339844 C -7.507812 -2.761719 -6.515625 -2.472656 -5.1875 -2.472656 Z M -5.1875 -2.472656 "/>
</g>
<g id="glyph-2-2">
<path d="M 0 -8.117188 L -1.523438 -8.117188 C -0.351562 -7.308594 0.234375 -6.210938 0.234375 -4.824219 C 0.234375 -4.210938 0.117188 -3.640625 -0.117188 -3.109375 C -0.351562 -2.578125 -0.644531 -2.1875 -1 -1.929688 C -1.355469 -1.671875 -1.789062 -1.492188 -2.304688 -1.386719 C -2.648438 -1.316406 -3.195312 -1.28125 -3.945312 -1.28125 L -10.371094 -1.28125 L -10.371094 -3.039062 L -4.617188 -3.039062 C -3.703125 -3.039062 -3.082031 -3.074219 -2.765625 -3.144531 C -2.300781 -3.253906 -1.9375 -3.488281 -1.675781 -3.847656 C -1.410156 -4.207031 -1.277344 -4.648438 -1.277344 -5.175781 C -1.277344 -5.703125 -1.414062 -6.199219 -1.683594 -6.660156 C -1.953125 -7.121094 -2.324219 -7.449219 -2.789062 -7.640625 C -3.253906 -7.832031 -3.929688 -7.929688 -4.8125 -7.929688 L -10.371094 -7.929688 L -10.371094 -9.6875 L 0 -9.6875 Z M 0 -8.117188 "/>
</g>
<g id="glyph-2-3">
<path d="M 0 -1.320312 L -10.371094 -1.320312 L -10.371094 -2.902344 L -8.898438 -2.902344 C -10.035156 -3.660156 -10.605469 -4.761719 -10.605469 -6.203125 C -10.605469 -6.828125 -10.492188 -7.402344 -10.269531 -7.925781 C -10.042969 -8.449219 -9.75 -8.839844 -9.382812 -9.101562 C -9.019531 -9.363281 -8.585938 -9.542969 -8.085938 -9.648438 C -7.761719 -9.714844 -7.191406 -9.746094 -6.375 -9.746094 L 0 -9.746094 L 0 -7.988281 L -6.308594 -7.988281 C -7.023438 -7.988281 -7.558594 -7.921875 -7.914062 -7.785156 C -8.269531 -7.648438 -8.554688 -7.402344 -8.765625 -7.054688 C -8.976562 -6.707031 -9.082031 -6.300781 -9.082031 -5.832031 C -9.082031 -5.082031 -8.84375 -4.433594 -8.367188 -3.890625 C -7.894531 -3.347656 -6.992188 -3.078125 -5.664062 -3.078125 L 0 -3.078125 Z M 0 -1.320312 "/>
</g>
<g id="glyph-2-4">
<path d="M -1.570312 -5.15625 L -0.0195312 -5.410156 C 0.0859375 -4.914062 0.136719 -4.472656 0.136719 -4.082031 C 0.136719 -3.445312 0.0351562 -2.949219 -0.164062 -2.597656 C -0.367188 -2.246094 -0.632812 -2 -0.960938 -1.855469 C -1.289062 -1.710938 -1.984375 -1.640625 -3.039062 -1.640625 L -9.003906 -1.640625 L -9.003906 -0.351562 L -10.371094 -0.351562 L -10.371094 -1.640625 L -12.9375 -1.640625 L -13.992188 -3.390625 L -10.371094 -3.390625 L -10.371094 -5.15625 L -9.003906 -5.15625 L -9.003906 -3.390625 L -2.9375 -3.390625 C -2.4375 -3.390625 -2.117188 -3.417969 -1.972656 -3.480469 C -1.828125 -3.542969 -1.714844 -3.644531 -1.628906 -3.785156 C -1.546875 -3.925781 -1.503906 -4.125 -1.503906 -4.382812 C -1.503906 -4.578125 -1.527344 -4.835938 -1.570312 -5.15625 Z M -1.570312 -5.15625 "/>
</g>
</g>
<clipPath id="clip-0">
<path clip-rule="nonzero" d="M 60.71875 30.023438 L 1119.523438 30.023438 L 1119.523438 777.53125 L 60.71875 777.53125 Z M 60.71875 30.023438 "/>
</clipPath>
<clipPath id="clip-1">
<path clip-rule="nonzero" d="M 108 702 L 141 702 L 141 777.53125 L 108 777.53125 Z M 108 702 "/>
</clipPath>
<clipPath id="clip-2">
<path clip-rule="nonzero" d="M 301 553 L 334 553 L 334 777.53125 L 301 777.53125 Z M 301 553 "/>
</clipPath>
<clipPath id="clip-3">
<path clip-rule="nonzero" d="M 397 553 L 430 553 L 430 777.53125 L 397 777.53125 Z M 397 553 "/>
</clipPath>
<clipPath id="clip-4">
<path clip-rule="nonzero" d="M 461 628 L 494 628 L 494 777.53125 L 461 777.53125 Z M 461 628 "/>
</clipPath>
<clipPath id="clip-5">
<path clip-rule="nonzero" d="M 493 628 L 526 628 L 526 777.53125 L 493 777.53125 Z M 493 628 "/>
</clipPath>
<clipPath id="clip-6">
<path clip-rule="nonzero" d="M 525 702 L 559 702 L 559 777.53125 L 525 777.53125 Z M 525 702 "/>
</clipPath>
<clipPath id="clip-7">
<path clip-rule="nonzero" d="M 558 628 L 591 628 L 591 777.53125 L 558 777.53125 Z M 558 628 "/>
</clipPath>
<clipPath id="clip-8">
<path clip-rule="nonzero" d="M 622 702 L 655 702 L 655 777.53125 L 622 777.53125 Z M 622 702 "/>
</clipPath>
<clipPath id="clip-9">
<path clip-rule="nonzero" d="M 654 478 L 687 478 L 687 777.53125 L 654 777.53125 Z M 654 478 "/>
</clipPath>
<clipPath id="clip-10">
<path clip-rule="nonzero" d="M 686 702 L 719 702 L 719 777.53125 L 686 777.53125 Z M 686 702 "/>
</clipPath>
<clipPath id="clip-11">
<path clip-rule="nonzero" d="M 718 254 L 751 254 L 751 777.53125 L 718 777.53125 Z M 718 254 "/>
</clipPath>
<clipPath id="clip-12">
<path clip-rule="nonzero" d="M 750 30.023438 L 783 30.023438 L 783 777.53125 L 750 777.53125 Z M 750 30.023438 "/>
</clipPath>
<clipPath id="clip-13">
<path clip-rule="nonzero" d="M 782 403 L 815 403 L 815 777.53125 L 782 777.53125 Z M 782 403 "/>
</clipPath>
<clipPath id="clip-14">
<path clip-rule="nonzero" d="M 814 553 L 847 553 L 847 777.53125 L 814 777.53125 Z M 814 553 "/>
</clipPath>
<clipPath id="clip-15">
<path clip-rule="nonzero" d="M 846 329 L 879 329 L 879 777.53125 L 846 777.53125 Z M 846 329 "/>
</clipPath>
<clipPath id="clip-16">
<path clip-rule="nonzero" d="M 910 702 L 944 702 L 944 777.53125 L 910 777.53125 Z M 910 702 "/>
</clipPath>
<clipPath id="clip-17">
<path clip-rule="nonzero" d="M 943 628 L 976 628 L 976 777.53125 L 943 777.53125 Z M 943 628 "/>
</clipPath>
<clipPath id="clip-18">
<path clip-rule="nonzero" d="M 975 553 L 1008 553 L 1008 777.53125 L 975 777.53125 Z M 975 553 "/>
</clipPath>
<clipPath id="clip-19">
<path clip-rule="nonzero" d="M 1007 628 L 1040 628 L 1040 777.53125 L 1007 777.53125 Z M 1007 628 "/>
</clipPath>
<clipPath id="clip-20">
<path clip-rule="nonzero" d="M 1039 702 L 1072 702 L 1072 777.53125 L 1039 777.53125 Z M 1039 702 "/>
</clipPath>
</defs>
<rect x="-112.5" y="-82.4" width="1350" height="988.8" fill="rgb(100%, 100%, 100%)" fill-opacity="1"/>
<rect x="-112.5" y="-82.4" width="1350" height="988.8" fill="rgb(100%, 100%, 100%)" fill-opacity="1"/>
<path fill="none" stroke-width="1.066978" stroke-linecap="round" stroke-linejoin="round" stroke="rgb(100%, 100%, 100%)" stroke-opacity="1" stroke-miterlimit="10" d="M 0 824 L 1125 824 L 1125 0 L 0 0 Z M 0 824 "/>
<g clip-path="url(#clip-0)">
<path fill-rule="nonzero" fill="rgb(100%, 100%, 100%)" fill-opacity="1" d="M 60.71875 777.53125 L 1119.523438 777.53125 L 1119.523438 30.023438 L 60.71875 30.023438 Z M 60.71875 777.53125 "/>
</g>
<g clip-path="url(#clip-1)">
<path fill-rule="nonzero" fill="rgb(34.901961%, 34.901961%, 34.901961%)" fill-opacity="1" d="M 108.84375 777.53125 L 140.929688 777.53125 L 140.929688 702.78125 L 108.84375 702.78125 Z M 108.84375 777.53125 "/>
</g>
<g clip-path="url(#clip-2)">
<path fill-rule="nonzero" fill="rgb(34.901961%, 34.901961%, 34.901961%)" fill-opacity="1" d="M 301.355469 777.53125 L 333.441406 777.53125 L 333.441406 553.277344 L 301.355469 553.277344 Z M 301.355469 777.53125 "/>
</g>
<g clip-path="url(#clip-3)">
<path fill-rule="nonzero" fill="rgb(34.901961%, 34.901961%, 34.901961%)" fill-opacity="1" d="M 397.609375 777.53125 L 429.695312 777.53125 L 429.695312 553.277344 L 397.609375 553.277344 Z M 397.609375 777.53125 "/>
</g>
<g clip-path="url(#clip-4)">
<path fill-rule="nonzero" fill="rgb(34.901961%, 34.901961%, 34.901961%)" fill-opacity="1" d="M 461.777344 777.53125 L 493.863281 777.53125 L 493.863281 628.03125 L 461.777344 628.03125 Z M 461.777344 777.53125 "/>
</g>
<g clip-path="url(#clip-5)">
<path fill-rule="nonzero" fill="rgb(34.901961%, 34.901961%, 34.901961%)" fill-opacity="1" d="M 493.863281 777.53125 L 525.949219 777.53125 L 525.949219 628.03125 L 493.863281 628.03125 Z M 493.863281 777.53125 "/>
</g>
<g clip-path="url(#clip-6)">
<path fill-rule="nonzero" fill="rgb(34.901961%, 34.901961%, 34.901961%)" fill-opacity="1" d="M 525.949219 777.53125 L 558.035156 777.53125 L 558.035156 702.78125 L 525.949219 702.78125 Z M 525.949219 777.53125 "/>
</g>
<g clip-path="url(#clip-7)">
<path fill-rule="nonzero" fill="rgb(34.901961%, 34.901961%, 34.901961%)" fill-opacity="1" d="M 558.035156 777.53125 L 590.121094 777.53125 L 590.121094 628.03125 L 558.035156 628.03125 Z M 558.035156 777.53125 "/>
</g>
<g clip-path="url(#clip-8)">
<path fill-rule="nonzero" fill="rgb(34.901961%, 34.901961%, 34.901961%)" fill-opacity="1" d="M 622.203125 777.53125 L 654.289062 777.53125 L 654.289062 702.78125 L 622.203125 702.78125 Z M 622.203125 777.53125 "/>
</g>
<g clip-path="url(#clip-9)">
<path fill-rule="nonzero" fill="rgb(34.901961%, 34.901961%, 34.901961%)" fill-opacity="1" d="M 654.289062 777.53125 L 686.375 777.53125 L 686.375 478.527344 L 654.289062 478.527344 Z M 654.289062 777.53125 "/>
</g>
<g clip-path="url(#clip-10)">
<path fill-rule="nonzero" fill="rgb(34.901961%, 34.901961%, 34.901961%)" fill-opacity="1" d="M 686.375 777.53125 L 718.460938 777.53125 L 718.460938 702.78125 L 686.375 702.78125 Z M 686.375 777.53125 "/>
</g>
<g clip-path="url(#clip-11)">
<path fill-rule="nonzero" fill="rgb(34.901961%, 34.901961%, 34.901961%)" fill-opacity="1" d="M 718.457031 777.53125 L 750.542969 777.53125 L 750.542969 254.277344 L 718.457031 254.277344 Z M 718.457031 777.53125 "/>
</g>
<g clip-path="url(#clip-12)">
<path fill-rule="nonzero" fill="rgb(34.901961%, 34.901961%, 34.901961%)" fill-opacity="1" d="M 750.542969 777.53125 L 782.628906 777.53125 L 782.628906 30.023438 L 750.542969 30.023438 Z M 750.542969 777.53125 "/>
</g>
<g clip-path="url(#clip-13)">
<path fill-rule="nonzero" fill="rgb(34.901961%, 34.901961%, 34.901961%)" fill-opacity="1" d="M 782.628906 777.53125 L 814.714844 777.53125 L 814.714844 403.777344 L 782.628906 403.777344 Z M 782.628906 777.53125 "/>
</g>
<g clip-path="url(#clip-14)">
<path fill-rule="nonzero" fill="rgb(34.901961%, 34.901961%, 34.901961%)" fill-opacity="1" d="M 814.714844 777.53125 L 846.800781 777.53125 L 846.800781 553.277344 L 814.714844 553.277344 Z M 814.714844 777.53125 "/>
</g>
<g clip-path="url(#clip-15)">
<path fill-rule="nonzero" fill="rgb(34.901961%, 34.901961%, 34.901961%)" fill-opacity="1" d="M 846.796875 777.53125 L 878.882812 777.53125 L 878.882812 329.027344 L 846.796875 329.027344 Z M 846.796875 777.53125 "/>
</g>
<g clip-path="url(#clip-16)">
<path fill-rule="nonzero" fill="rgb(34.901961%, 34.901961%, 34.901961%)" fill-opacity="1" d="M 910.96875 777.53125 L 943.054688 777.53125 L 943.054688 702.78125 L 910.96875 702.78125 Z M 910.96875 777.53125 "/>
</g>
<g clip-path="url(#clip-17)">
<path fill-rule="nonzero" fill="rgb(34.901961%, 34.901961%, 34.901961%)" fill-opacity="1" d="M 943.054688 777.53125 L 975.140625 777.53125 L 975.140625 628.03125 L 943.054688 628.03125 Z M 943.054688 777.53125 "/>
</g>
<g clip-path="url(#clip-18)">
<path fill-rule="nonzero" fill="rgb(34.901961%, 34.901961%, 34.901961%)" fill-opacity="1" d="M 975.136719 777.53125 L 1007.222656 777.53125 L 1007.222656 553.277344 L 975.136719 553.277344 Z M 975.136719 777.53125 "/>
</g>
<g clip-path="url(#clip-19)">
<path fill-rule="nonzero" fill="rgb(34.901961%, 34.901961%, 34.901961%)" fill-opacity="1" d="M 1007.222656 777.53125 L 1039.308594 777.53125 L 1039.308594 628.03125 L 1007.222656 628.03125 Z M 1007.222656 777.53125 "/>
</g>
<g clip-path="url(#clip-20)">
<path fill-rule="nonzero" fill="rgb(34.901961%, 34.901961%, 34.901961%)" fill-opacity="1" d="M 1039.308594 777.53125 L 1071.394531 777.53125 L 1071.394531 702.78125 L 1039.308594 702.78125 Z M 1039.308594 777.53125 "/>
</g>
<path fill="none" stroke-width="1.066978" stroke-linecap="square" stroke-linejoin="round" stroke="rgb(0%, 0%, 0%)" stroke-opacity="1" stroke-miterlimit="10" d="M 60.71875 777.53125 L 60.71875 30.023438 "/>
<g fill="rgb(0%, 0%, 0%)" fill-opacity="1">
<use xlink:href="#glyph-0-0" x="36.324219" y="783.042969"/>
<use xlink:href="#glyph-0-1" x="44.110352" y="783.042969"/>
<use xlink:href="#glyph-0-0" x="48" y="783.042969"/>
</g>
<g fill="rgb(0%, 0%, 0%)" fill-opacity="1">
<use xlink:href="#glyph-0-2" x="36.324219" y="596.167969"/>
<use xlink:href="#glyph-0-1" x="44.110352" y="596.167969"/>
<use xlink:href="#glyph-0-3" x="48" y="596.167969"/>
</g>
<g fill="rgb(0%, 0%, 0%)" fill-opacity="1">
<use xlink:href="#glyph-0-3" x="36.324219" y="409.289062"/>
<use xlink:href="#glyph-0-1" x="44.110352" y="409.289062"/>
<use xlink:href="#glyph-0-0" x="48" y="409.289062"/>
</g>
<g fill="rgb(0%, 0%, 0%)" fill-opacity="1">
<use xlink:href="#glyph-0-4" x="36.324219" y="222.414062"/>
<use xlink:href="#glyph-0-1" x="44.110352" y="222.414062"/>
<use xlink:href="#glyph-0-3" x="48" y="222.414062"/>
</g>
<g fill="rgb(0%, 0%, 0%)" fill-opacity="1">
<use xlink:href="#glyph-0-5" x="28.535156" y="35.535156"/>
<use xlink:href="#glyph-0-0" x="36.321289" y="35.535156"/>
<use xlink:href="#glyph-0-1" x="44.107422" y="35.535156"/>
<use xlink:href="#glyph-0-0" x="47.99707" y="35.535156"/>
</g>
<path fill="none" stroke-width="1.066978" stroke-linecap="butt" stroke-linejoin="round" stroke="rgb(0%, 0%, 0%)" stroke-opacity="1" stroke-miterlimit="10" d="M 57.976562 777.53125 L 60.71875 777.53125 "/>
<path fill="none" stroke-width="1.066978" stroke-linecap="butt" stroke-linejoin="round" stroke="rgb(0%, 0%, 0%)" stroke-opacity="1" stroke-miterlimit="10" d="M 57.976562 590.65625 L 60.71875 590.65625 "/>
<path fill="none" stroke-width="1.066978" stroke-linecap="butt" stroke-linejoin="round" stroke="rgb(0%, 0%, 0%)" stroke-opacity="1" stroke-miterlimit="10" d="M 57.976562 403.777344 L 60.71875 403.777344 "/>
<path fill="none" stroke-width="1.066978" stroke-linecap="butt" stroke-linejoin="round" stroke="rgb(0%, 0%, 0%)" stroke-opacity="1" stroke-miterlimit="10" d="M 57.976562 216.902344 L 60.71875 216.902344 "/>
<path fill="none" stroke-width="1.066978" stroke-linecap="butt" stroke-linejoin="round" stroke="rgb(0%, 0%, 0%)" stroke-opacity="1" stroke-miterlimit="10" d="M 57.976562 30.023438 L 60.71875 30.023438 "/>
<path fill="none" stroke-width="1.066978" stroke-linecap="square" stroke-linejoin="round" stroke="rgb(0%, 0%, 0%)" stroke-opacity="1" stroke-miterlimit="10" d="M 60.71875 777.53125 L 1119.519531 777.53125 "/>
<path fill="none" stroke-width="1.066978" stroke-linecap="butt" stroke-linejoin="round" stroke="rgb(0%, 0%, 0%)" stroke-opacity="1" stroke-miterlimit="10" d="M 121.050781 780.273438 L 121.050781 777.53125 "/>
<path fill="none" stroke-width="1.066978" stroke-linecap="butt" stroke-linejoin="round" stroke="rgb(0%, 0%, 0%)" stroke-opacity="1" stroke-miterlimit="10" d="M 351.269531 780.273438 L 351.269531 777.53125 "/>
<path fill="none" stroke-width="1.066978" stroke-linecap="butt" stroke-linejoin="round" stroke="rgb(0%, 0%, 0%)" stroke-opacity="1" stroke-miterlimit="10" d="M 581.484375 780.273438 L 581.484375 777.53125 "/>
<path fill="none" stroke-width="1.066978" stroke-linecap="butt" stroke-linejoin="round" stroke="rgb(0%, 0%, 0%)" stroke-opacity="1" stroke-miterlimit="10" d="M 811.703125 780.273438 L 811.703125 777.53125 "/>
<path fill="none" stroke-width="1.066978" stroke-linecap="butt" stroke-linejoin="round" stroke="rgb(0%, 0%, 0%)" stroke-opacity="1" stroke-miterlimit="10" d="M 1041.921875 780.273438 L 1041.921875 777.53125 "/>
<g fill="rgb(0%, 0%, 0%)" fill-opacity="1">
<use xlink:href="#glyph-0-6" x="110.933594" y="793.484375"/>
<use xlink:href="#glyph-0-5" x="115.595703" y="793.484375"/>
<use xlink:href="#glyph-0-3" x="123.381836" y="793.484375"/>
</g>
<g fill="rgb(0%, 0%, 0%)" fill-opacity="1">
<use xlink:href="#glyph-0-6" x="341.152344" y="793.484375"/>
<use xlink:href="#glyph-0-5" x="345.814453" y="793.484375"/>
<use xlink:href="#glyph-0-0" x="353.600586" y="793.484375"/>
</g>
<g fill="rgb(0%, 0%, 0%)" fill-opacity="1">
<use xlink:href="#glyph-0-6" x="575.261719" y="793.484375"/>
<use xlink:href="#glyph-0-3" x="579.923828" y="793.484375"/>
</g>
<g fill="rgb(0%, 0%, 0%)" fill-opacity="1">
<use xlink:href="#glyph-0-0" x="807.808594" y="793.484375"/>
</g>
<g fill="rgb(0%, 0%, 0%)" fill-opacity="1">
<use xlink:href="#glyph-0-3" x="1038.027344" y="793.484375"/>
</g>
<g fill="rgb(0%, 0%, 0%)" fill-opacity="1">
<use xlink:href="#glyph-1-0" x="567.894531" y="814.769531"/>
<use xlink:href="#glyph-1-1" x="581.234375" y="814.769531"/>
<use xlink:href="#glyph-1-1" x="587.894531" y="814.769531"/>
<use xlink:href="#glyph-1-2" x="594.554688" y="814.769531"/>
<use xlink:href="#glyph-1-1" x="605.677734" y="814.769531"/>
</g>
<g fill="rgb(0%, 0%, 0%)" fill-opacity="1">
<use xlink:href="#glyph-2-0" x="20.796875" y="428.238281"/>
<use xlink:href="#glyph-2-1" x="20.796875" y="418.238281"/>
<use xlink:href="#glyph-2-2" x="20.796875" y="407.115234"/>
<use xlink:href="#glyph-2-3" x="20.796875" y="395.992188"/>
<use xlink:href="#glyph-2-4" x="20.796875" y="384.869141"/>
</g>
<g fill="rgb(0%, 0%, 0%)" fill-opacity="1">
<use xlink:href="#glyph-1-3" x="60.71875" y="20.796875"/>
<use xlink:href="#glyph-1-4" x="75.162109" y="20.796875"/>
<use xlink:href="#glyph-1-5" x="79.605469" y="20.796875"/>
<use xlink:href="#glyph-1-6" x="89.605469" y="20.796875"/>
<use xlink:href="#glyph-1-1" x="95.162109" y="20.796875"/>
<use xlink:href="#glyph-1-4" x="101.822266" y="20.796875"/>
<use xlink:href="#glyph-1-7" x="106.265625" y="20.796875"/>
<use xlink:href="#glyph-1-8" x="117.388672" y="20.796875"/>
<use xlink:href="#glyph-1-6" x="128.511719" y="20.796875"/>
<use xlink:href="#glyph-1-4" x="134.068359" y="20.796875"/>
<use xlink:href="#glyph-1-2" x="138.511719" y="20.796875"/>
<use xlink:href="#glyph-1-9" x="149.634766" y="20.796875"/>
<use xlink:href="#glyph-1-10" x="160.757812" y="20.796875"/>
<use xlink:href="#glyph-1-2" x="166.314453" y="20.796875"/>
<use xlink:href="#glyph-1-11" x="177.4375" y="20.796875"/>
<use xlink:href="#glyph-1-10" x="182.994141" y="20.796875"/>
<use xlink:href="#glyph-1-12" x="188.550781" y="20.796875"/>
<use xlink:href="#glyph-1-1" x="199.673828" y="20.796875"/>
<use xlink:href="#glyph-1-13" x="206.333984" y="20.796875"/>
<use xlink:href="#glyph-1-14" x="217.457031" y="20.796875"/>
<use xlink:href="#glyph-1-4" x="228.580078" y="20.796875"/>
<use xlink:href="#glyph-1-15" x="233.023438" y="20.796875"/>
<use xlink:href="#glyph-1-6" x="243.023438" y="20.796875"/>
<use xlink:href="#glyph-1-4" x="248.580078" y="20.796875"/>
<use xlink:href="#glyph-1-2" x="253.023438" y="20.796875"/>
<use xlink:href="#glyph-1-9" x="264.146484" y="20.796875"/>
<use xlink:href="#glyph-1-10" x="275.269531" y="20.796875"/>
<use xlink:href="#glyph-1-13" x="280.826172" y="20.796875"/>
<use xlink:href="#glyph-1-1" x="291.949219" y="20.796875"/>
<use xlink:href="#glyph-1-1" x="298.609375" y="20.796875"/>
<use xlink:href="#glyph-1-2" x="305.269531" y="20.796875"/>
<use xlink:href="#glyph-1-1" x="316.392578" y="20.796875"/>
<use xlink:href="#glyph-1-5" x="323.052734" y="20.796875"/>
</g>
</svg>
